PathFileType  4	(X/Y/Z) C:\Users\antoi\Documents\MyRepositories\mobilecap\ResultsAnalysis
DataRate	CameraRate	NumFrames	NumMarkers	Units	OrigDataRate	OrigDataStartFrame	OrigNumFrames
100.0	100.0	5	55	mm	100.0	293	781
Frame#	Time	r_knee			r_shank_antsup			r_ankle			r_calc			r_5meta			r_toe			L_knee			L_shank_antsup			L_ankle			L_calc			L_5meta			L_toe			r_mknee			r_mankle			L_mknee			L_mankle			r_sh2			r_sh3			r_sh4			L_sh2			L_sh3			r_thigh1			r_thigh2			r_thigh3			r_thigh4			r_thigh5			L_thigh1			L_thigh2			L_thigh3			L_thigh4			r.ASIS			r.PSIS			L.ASIS			L.PSIS			C7			R_Shoulder			L_Shoulder			R_Sternum			L_Sternum			R_humerus			R_elbow_med			R_elbow_lat			R_forearm			R_wrist_radius			R_wrist_ulna			L_humerus			L_elbow_med			L_elbow_lat			L_forearm			L_wrist_radius			L_wrist_ulna			R_HJC			L_HJC			R_HJC_reg			L_HJC_reg			
		X1	Y1	Z1	X2	Y2	Z2	X3	Y3	Z3	X4	Y4	Z4	X5	Y5	Z5	X6	Y6	Z6	X7	Y7	Z7	X8	Y8	Z8	X9	Y9	Z9	X10	Y10	Z10	X11	Y11	Z11	X12	Y12	Z12	X13	Y13	Z13	X14	Y14	Z14	X15	Y15	Z15	X16	Y16	Z16	X17	Y17	Z17	X18	Y18	Z18	X19	Y19	Z19	X20	Y20	Z20	X21	Y21	Z21	X22	Y22	Z22	X23	Y23	Z23	X24	Y24	Z24	X25	Y25	Z25	X26	Y26	Z26	X27	Y27	Z27	X28	Y28	Z28	X29	Y29	Z29	X30	Y30	Z30	X31	Y31	Z31	X32	Y32	Z32	X33	Y33	Z33	X34	Y34	Z34	X35	Y35	Z35	X36	Y36	Z36	X37	Y37	Z37	X38	Y38	Z38	X39	Y39	Z39	X40	Y40	Z40	X41	Y41	Z41	X42	Y42	Z42	X43	Y43	Z43	X44	Y44	Z44	X45	Y45	Z45	X46	Y46	Z46	X47	Y47	Z47	X48	Y48	Z48	X49	Y49	Z49	X50	Y50	Z50	X51	Y51	Z51	X52	Y52	Z52	X53	Y53	Z53	X54	Y54	Z54	X55	Y55	Z55	

293	2.92000000	-206.29770	553.13517	-452.16962	-183.79585	429.26258	-457.95103	-293.86549	101.25850	-448.29875	-360.75474	67.06281	-490.78795	-159.55005	36.85633	-403.83607	-123.69578	58.65637	-478.28617	-245.55297	543.68949	-805.64528	-213.65531	440.61075	-793.06478	-300.46318	98.00555	-799.33431	-361.63944	66.75585	-751.40455	-156.18486	35.57703	-828.99168	-125.28976	58.51478	-757.75511	-212.99584	534.17352	-581.41881	-266.69861	111.75438	-542.97559	-234.13356	533.91159	-675.04783	-274.97527	113.40309	-706.02157	-192.04478	313.99433	-475.23098	-244.35990	424.82741	-409.19748	-243.74165	307.48854	-407.81326	-293.37309	443.69765	-834.48978	-275.60027	324.46522	-850.65021	-88.11804	781.47982	-476.84017	-101.42363	669.77697	-488.49307	-134.52860	645.91924	-433.67961	-172.09182	781.14754	-402.06790	-184.01831	663.91212	-421.65327	-131.39475	790.83317	-820.60215	-142.35123	655.00523	-809.14373	-240.08615	796.67390	-850.98231	-251.31156	658.34702	-832.42233	-106.71238	1054.94407	-486.35964	-312.29875	1088.91562	-574.58922	-104.80068	1045.42338	-754.38062	-313.44460	1086.41985	-674.02228	-299.53923	1575.60339	-637.88175	-218.42241	1516.77834	-444.28794	-205.29523	1533.10658	-811.49734	-152.04243	1521.79308	-609.18346	-151.47340	1516.50959	-653.15709	-191.86957	1346.35667	-375.56654	-257.27097	1122.30965	-411.81561	-231.86009	1145.82879	-337.23389	-119.05823	1012.39139	-330.43273	-73.26729	902.37314	-321.18975	-104.46818	881.98322	-302.99417	-182.86136	1356.05578	-890.25697	-264.31416	1146.53236	-858.48374	-221.95003	1159.64469	-923.72499	-117.83441	1031.22241	-892.68245	-76.76941	921.50198	-910.58791	-112.34652	906.98705	-936.47978	-190.53190	975.11636	-521.57694	-186.43396	957.26354	-734.18123	-180.05746	973.19296	-521.73994	-182.09651	968.75170	-698.68237	
294	2.93000000	-206.29941	553.10307	-452.17990	-183.78363	429.16751	-457.95365	-293.86093	101.27317	-448.29960	-360.66579	66.96103	-490.73668	-159.50754	36.93299	-403.82306	-123.69932	58.68150	-478.31898	-245.53022	543.65016	-805.65740	-213.65070	440.56774	-793.07795	-300.45784	97.96854	-799.37370	-361.65825	66.74026	-751.47052	-156.18946	35.53433	-829.00995	-125.29524	58.52604	-757.76703	-213.00203	534.17601	-581.42089	-266.70945	111.71005	-542.98946	-234.13010	533.91270	-675.04743	-274.97250	113.43356	-705.98804	-192.03864	314.00360	-475.22772	-244.32780	424.93311	-409.26402	-243.91174	307.52197	-407.68115	-293.35490	443.65526	-834.49242	-275.58527	324.42389	-850.66839	-88.12453	781.44800	-476.86334	-101.42420	669.74097	-488.50754	-134.49040	645.89049	-433.65732	-172.10378	781.08695	-402.12558	-184.03167	663.86213	-421.63267	-131.34954	790.82480	-820.56489	-142.32547	654.96692	-809.15202	-240.03831	796.64628	-851.00632	-251.26885	658.29212	-832.42822	-106.72754	1054.94634	-486.32009	-312.34316	1088.87474	-574.59503	-104.78877	1045.38859	-754.38739	-313.41996	1086.38812	-674.04304	-299.54559	1575.57690	-637.91297	-218.46864	1516.74556	-444.28438	-205.29349	1533.07205	-811.51663	-152.06144	1521.75644	-609.20068	-151.49590	1516.46695	-653.15125	-191.92957	1346.32754	-375.56742	-257.22868	1122.31505	-411.84426	-231.94213	1145.82238	-337.20173	-119.14865	1012.40465	-330.35841	-73.32026	902.33521	-321.21991	-104.53099	881.97776	-302.99604	-182.82355	1356.00171	-890.24084	-264.24904	1146.47636	-858.53782	-221.88400	1159.61182	-923.75100	-117.76053	1031.18992	-892.69741	-76.68998	921.44952	-910.56091	-112.23826	906.90424	-936.33599	-190.54304	975.10212	-521.56319	-186.41237	957.22824	-734.16507	-180.10482	973.12869	-521.76611	-182.02109	968.70354	-698.74191	
295	2.94000000	-206.27810	553.07790	-452.15105	-183.78392	429.07192	-457.93969	-293.84285	101.30770	-448.29057	-360.48437	66.81718	-490.63647	-159.49779	36.93757	-403.81783	-123.71954	58.67880	-478.34266	-245.51486	543.63350	-805.67375	-213.64068	440.54454	-793.08503	-300.45799	97.91676	-799.32994	-361.62721	66.74330	-751.49710	-156.19382	35.51194	-829.02305	-125.30111	58.52244	-757.75049	-213.00576	534.18985	-581.42930	-266.71910	111.69003	-543.00040	-234.12924	533.91755	-675.04750	-274.98008	113.42921	-705.95788	-192.03326	313.99746	-475.23948	-244.30486	425.09962	-409.31209	-243.86351	307.53732	-407.65538	-293.32884	443.63889	-834.50330	-275.56787	324.39034	-850.64583	-88.14006	781.44344	-476.87547	-101.41343	669.75494	-488.53616	-134.46779	645.92062	-433.55919	-172.09990	781.07804	-402.13610	-184.02873	663.89838	-421.63686	-131.30615	790.82141	-820.55799	-142.30351	654.94967	-809.15615	-240.00511	796.61842	-850.99753	-251.22907	658.26578	-832.43883	-106.69419	1054.98019	-486.21466	-312.32707	1088.89083	-574.60443	-104.78065	1045.36740	-754.38964	-313.39191	1086.35470	-674.06426	-299.54423	1575.54590	-637.90353	-218.50396	1516.71984	-444.31769	-205.28703	1533.04956	-811.51256	-152.10988	1521.76920	-609.26263	-151.52073	1516.44822	-653.14712	-191.98108	1346.27323	-375.53654	-257.23475	1122.31709	-411.84183	-231.98862	1145.83954	-337.11901	-119.23556	1012.38944	-330.27639	-73.38542	902.30694	-321.22722	-104.58946	881.96124	-302.96965	-182.78946	1355.97114	-890.23465	-264.20542	1146.44600	-858.52850	-221.80807	1159.62522	-923.79508	-117.69097	1031.17435	-892.69446	-76.62733	921.42397	-910.53820	-112.00639	906.70839	-936.18902	-190.52671	975.12825	-521.51870	-186.37252	957.19938	-734.11550	-180.10943	973.16056	-521.64865	-182.00495	968.64601	-698.69459	
296	2.95000000	-206.25154	553.05136	-452.10013	-183.80742	429.05440	-457.89869	-293.83537	101.29445	-448.27633	-360.33750	66.73039	-490.56210	-159.53437	36.84395	-403.84952	-123.73237	58.64763	-478.33845	-245.49677	543.63713	-805.68395	-213.62717	440.54691	-793.08788	-300.45977	97.90381	-799.29848	-361.58942	66.76320	-751.50187	-156.19735	35.51426	-829.02475	-125.30835	58.49746	-757.72503	-213.00342	534.20547	-581.43758	-266.71927	111.69608	-543.00069	-234.12771	533.92720	-675.04820	-274.97450	113.36738	-705.94694	-192.03264	313.99032	-475.25225	-244.28132	425.14590	-409.32058	-243.79267	307.54464	-407.67188	-293.30599	443.64441	-834.50457	-275.54910	324.37977	-850.61286	-88.15192	781.46622	-476.87271	-101.40822	669.76480	-488.52649	-134.50905	645.98338	-433.46125	-172.14041	781.08349	-402.10663	-183.98380	664.04213	-421.57975	-131.27848	790.81385	-820.59910	-142.28533	654.95317	-809.15411	-239.98074	796.60312	-850.97732	-251.20307	658.27908	-832.45922	-106.64907	1054.98775	-486.07294	-312.29652	1088.92362	-574.62394	-104.77037	1045.37997	-754.39439	-313.37435	1086.33690	-674.08018	-299.53533	1575.53803	-637.88338	-218.53726	1516.73337	-444.34090	-205.28826	1533.04176	-811.50078	-152.14656	1521.80089	-609.28548	-151.54654	1516.45625	-653.15373	-192.03395	1346.23164	-375.51554	-257.35580	1122.31086	-411.78363	-232.00377	1145.85143	-337.02831	-119.25985	1012.37805	-330.22046	-73.45162	902.30419	-321.18201	-104.62497	881.93183	-302.88955	-182.74563	1355.97639	-890.25806	-264.14832	1146.44773	-858.51116	-221.74337	1159.65445	-923.81818	-117.63308	1031.17438	-892.67085	-76.55996	921.41840	-910.50573	-111.67958	906.41923	-936.06683	-190.51428	975.14496	-521.48343	-186.33025	957.19966	-734.07826	-180.10509	973.20578	-521.48226	-182.02481	968.59861	-698.62194	
297	2.96000000	-206.26010	553.02370	-452.07496	-183.81265	429.08475	-457.90285	-293.86098	101.22665	-448.27552	-360.36332	66.75148	-490.58352	-159.57024	36.72148	-403.89932	-123.73131	58.59282	-478.29670	-245.47263	543.66452	-805.68501	-213.60980	440.56823	-793.08097	-300.46239	97.94031	-799.31006	-361.58535	66.77166	-751.48311	-156.19551	35.54591	-829.01124	-125.31460	58.46911	-757.69909	-212.99993	534.21278	-581.44050	-266.70775	111.72138	-542.98929	-234.12025	533.92774	-675.04608	-274.96863	113.30264	-705.96438	-192.03156	313.99931	-475.22858	-244.15453	425.05701	-409.33135	-243.85755	307.53217	-407.65564	-293.29456	443.66617	-834.51220	-275.52936	324.40603	-850.58751	-88.16090	781.48089	-476.84376	-101.42137	669.73715	-488.44850	-134.56761	645.98427	-433.40823	-172.19355	781.07258	-402.06572	-183.97398	664.05666	-421.53770	-131.24997	790.80686	-820.60985	-142.26670	654.97427	-809.14533	-239.92847	796.68510	-851.04732	-251.17798	658.31210	-832.47879	-106.68181	1054.94619	-485.98937	-312.30043	1088.88283	-574.62651	-104.74355	1045.42005	-754.38422	-313.37008	1086.33899	-674.08701	-299.54738	1575.58764	-637.91969	-218.57484	1516.75424	-444.31436	-205.30122	1533.05556	-811.50239	-152.16058	1521.80832	-609.23349	-151.56910	1516.47965	-653.15639	-192.09279	1346.23775	-375.55185	-257.44547	1122.30021	-411.74129	-232.03851	1145.84934	-336.98934	-119.27904	1012.39059	-330.21210	-73.49265	902.33711	-321.10187	-104.68251	881.89688	-302.81751	-182.69841	1356.01851	-890.31162	-264.09150	1146.46204	-858.51277	-221.69936	1159.68291	-923.81507	-117.58290	1031.19253	-892.64455	-76.46642	921.40398	-910.46462	-111.42042	906.23527	-935.99713	-190.53294	975.10460	-521.48735	-186.29318	957.22717	-734.08677	-180.10653	973.13062	-521.45073	-182.01212	968.59879	-698.63928	
